<?xml version="1.0" encoding="utf-8"?>
<!-- Generator: Adobe Illustrator 16.0.0, SVG Export Plug-In . SVG Version: 6.00 Build 0)  -->
<!DOCTYPE svg PUBLIC "-//W3C//DTD SVG 1.1//EN" "http://www.w3.org/Graphics/SVG/1.1/DTD/svg11.dtd">
<svg version="1.1" id="Layer_1" xmlns="http://www.w3.org/2000/svg" xmlns:xlink="http://www.w3.org/1999/xlink" x="0px" y="0px"
	 width="213px" height="57px" viewBox="0 0 213 57" enable-background="new 0 0 213 57" xml:space="preserve">
<circle fill-rule="evenodd" clip-rule="evenodd" fill="#F3CB00" cx="32.305" cy="28.653" r="27.591"/>
<circle fill-rule="evenodd" clip-rule="evenodd" fill="#195992" cx="32.305" cy="28.653" r="24.807"/>
<path fill-rule="evenodd" clip-rule="evenodd" fill="#F3CB00" d="M41.284,6.858c2.762,1.14,5.26,2.788,7.377,4.83v14.399
	l-7.377-5.642V6.858L41.284,6.858z M48.661,45.619V35.272c0-0.231,0.189-0.42,0.42-0.42h5.116c0.231,0,0.27-0.114,0.086-0.255
	L32.475,17.921c-0.184-0.141-0.483-0.14-0.666,0.002L10.326,34.595c-0.183,0.142-0.143,0.258,0.088,0.258h4.888
	c0.227,0,0.413,0.182,0.42,0.407v10.138c2.108,2.088,4.607,3.78,7.378,4.957V34.853h18.184v15.596
	C44.046,49.31,46.544,47.661,48.661,45.619L48.661,45.619z M15.722,11.909c2.108-2.087,4.607-3.78,7.378-4.957v13.496l-7.378,5.725
	V11.909z"/>
<path fill-rule="evenodd" clip-rule="evenodd" fill="#F3CB00" d="M73.321,11.234v21.572h5.191v-8.983h13.304v8.983h5.16V11.234
	h-5.16v8.268H78.512v-8.268H73.321L73.321,11.234z M113.324,20.559h-12.682v4.29h12.682V20.559L113.324,20.559z M117.459,11.234
	v21.572h5.159V16.953l8.921,15.853h5.595l8.952-15.853v15.853h5.191V11.234h-7.74l-9.2,15.883l-8.89-15.883H117.459L117.459,11.234z
	 M155.193,11.234v21.572h22.069v-4.321h-16.909v-4.663h16.381v-4.32h-16.381v-3.979h16.909v-4.29H155.193L155.193,11.234z
	 M181.055,11.234v21.572h5.16V16.673l14.204,16.132h6.186V11.234h-5.19v14.765l-12.651-14.765H181.055z"/>
<path fill-rule="evenodd" clip-rule="evenodd" fill="#F3CB00" d="M74.587,12.497V31.54h2.66v-7.719c0-0.699,0.567-1.266,1.266-1.266
	h13.305c0.699,0,1.266,0.567,1.266,1.266v7.719h2.629V12.497h-2.629V19.5c0,0.699-0.567,1.266-1.266,1.266H78.513
	c-0.699,0-1.266-0.566-1.266-1.266v-7.003H74.587L74.587,12.497z M72.056,32.806V11.231c0-0.699,0.567-1.265,1.266-1.265h5.191
	c0.699,0,1.266,0.566,1.266,1.265v7.003h10.773v-7.003c0-0.699,0.567-1.265,1.266-1.265h5.161c0.698,0,1.265,0.566,1.265,1.265
	v21.574c0,0.698-0.567,1.266-1.265,1.266h-5.161c-0.699,0-1.266-0.567-1.266-1.266v-7.719H79.778v7.719
	c0,0.698-0.567,1.266-1.266,1.266h-5.191C72.623,34.071,72.056,33.504,72.056,32.806L72.056,32.806z M112.063,21.823h-10.152v1.759
	h10.152V21.823L112.063,21.823z M100.646,19.292h12.683c0.699,0,1.266,0.566,1.266,1.266v4.29c0,0.699-0.566,1.266-1.266,1.266
	h-12.683c-0.699,0-1.266-0.567-1.266-1.266v-4.29C99.38,19.858,99.947,19.292,100.646,19.292L100.646,19.292z M118.729,12.497V31.54
	h2.629V16.952c0-0.699,0.566-1.266,1.266-1.266c0.499,0,0.931,0.289,1.137,0.709l8.522,15.145h4.126l8.587-15.207
	c0.342-0.606,1.109-0.82,1.716-0.479c0.41,0.231,0.642,0.658,0.642,1.098h0.006V31.54h2.66V12.497h-5.749l-8.835,15.252
	c-0.35,0.603-1.122,0.809-1.725,0.459c-0.204-0.118-0.362-0.284-0.469-0.475l-0.001,0l-8.528-15.237H118.729L118.729,12.497z
	 M116.198,32.806V11.231c0-0.699,0.566-1.265,1.266-1.265h7.988v0.001c0.442,0,0.871,0.233,1.103,0.646l7.809,13.95l8.043-13.886
	c0.206-0.421,0.639-0.711,1.139-0.711h7.74c0.699,0,1.266,0.566,1.266,1.265v21.574c0,0.698-0.566,1.266-1.266,1.266h-5.191
	c-0.699,0-1.266-0.567-1.266-1.266V21.754L138.3,33.315c-0.196,0.444-0.642,0.756-1.159,0.756h-5.596v-0.002
	c-0.441-0.001-0.87-0.233-1.102-0.646l-6.554-11.646v11.028c0,0.698-0.567,1.266-1.266,1.266h-5.16
	C116.765,34.071,116.198,33.504,116.198,32.806L116.198,32.806z M156.468,12.497V31.54h19.54v-1.79h-15.646
	c-0.698,0-1.266-0.567-1.266-1.266v-4.663c0-0.699,0.567-1.266,1.266-1.266h15.117v-1.79h-15.117c-0.698,0-1.266-0.566-1.266-1.266
	v-3.979c0-0.699,0.567-1.266,1.266-1.266h15.646v-1.759H156.468L156.468,12.497z M153.937,32.806V11.231
	c0-0.699,0.566-1.265,1.266-1.265h22.071c0.698,0,1.266,0.566,1.266,1.265v4.291c0,0.699-0.567,1.266-1.266,1.266h-15.646v1.447
	h15.117c0.698,0,1.266,0.567,1.266,1.266v4.321c0,0.699-0.567,1.266-1.266,1.266h-15.117v2.132h15.646
	c0.698,0,1.266,0.567,1.266,1.266v4.321c0,0.698-0.567,1.266-1.266,1.266h-22.071C154.503,34.071,153.937,33.504,153.937,32.806
	L153.937,32.806z M182.331,12.497V31.54h2.629V16.672c0-0.699,0.567-1.266,1.266-1.266c0.396,0,0.751,0.183,0.982,0.468
	l13.795,15.666h4.35V12.497h-2.66v13.5c0,0.699-0.566,1.266-1.266,1.266c-0.417,0-0.787-0.202-1.018-0.514l-12.212-14.252H182.331
	L182.331,12.497z M179.8,32.806V11.231c0-0.699,0.567-1.265,1.266-1.265h7.71V9.97c0.355,0,0.709,0.15,0.959,0.441l10.427,12.169
	V11.231c0-0.699,0.567-1.265,1.266-1.265h5.191c0.699,0,1.266,0.566,1.266,1.265v21.574c0,0.698-0.566,1.266-1.266,1.266h-6.186
	V34.07c-0.351,0-0.7-0.146-0.949-0.43l-11.991-13.618v12.783c0,0.698-0.567,1.266-1.267,1.266h-5.16
	C180.367,34.071,179.8,33.504,179.8,32.806z"/>
<path fill-rule="evenodd" clip-rule="evenodd" fill="#195992" d="M73.321,11.234v21.572h5.191v-8.983h13.304v8.983h5.16V11.234
	h-5.16v8.268H78.512v-8.268H73.321L73.321,11.234z M113.324,20.559h-12.682v4.29h12.682V20.559L113.324,20.559z M117.459,11.234
	v21.572h5.159V16.953l8.921,15.853h5.595l8.952-15.853v15.853h5.191V11.234h-7.74l-9.2,15.883l-8.89-15.883H117.459L117.459,11.234z
	 M155.193,11.234v21.572h22.069v-4.321h-16.909v-4.663h16.381v-4.32h-16.381v-3.979h16.909v-4.29H155.193L155.193,11.234z
	 M181.055,11.234v21.572h5.16V16.673l14.204,16.132h6.186V11.234h-5.19v14.765l-12.651-14.765H181.055z"/>
<path fill-rule="evenodd" clip-rule="evenodd" fill="#195992" d="M81.21,40.05h-7.807v0.9h6.139l-6.198,5.563v0.827h7.866v-0.9
	h-6.184l6.184-5.579V40.05L81.21,40.05z M84.797,42.884c-0.797,0-1.377,0.159-1.742,0.479c-0.364,0.319-0.546,0.73-0.546,1.232
	v0.886c0,0.639,0.185,1.108,0.554,1.409c0.369,0.3,0.932,0.45,1.689,0.45h4.634c0.345,0,0.615-0.057,0.812-0.17
	s0.364-0.248,0.501-0.406v0.576h1.063v-4.723c0-0.395-0.052-0.751-0.155-1.07c-0.103-0.32-0.266-0.591-0.487-0.812
	c-0.221-0.222-0.507-0.392-0.856-0.51c-0.349-0.117-0.77-0.177-1.262-0.177H85.52c-0.836,0-1.483,0.172-1.941,0.517
	s-0.686,0.816-0.686,1.417v0.177h1.092v-0.177c0-0.295,0.145-0.541,0.435-0.738c0.291-0.196,0.75-0.295,1.38-0.295h3.1
	c0.64,0,1.097,0.145,1.373,0.436c0.275,0.29,0.413,0.646,0.413,1.069v1.033c-0.049-0.167-0.182-0.31-0.398-0.428
	c-0.216-0.118-0.531-0.177-0.944-0.177H84.797L84.797,42.884z M89.063,43.784c0.521,0,0.919,0.105,1.195,0.317
	c0.275,0.211,0.413,0.548,0.413,1.011c0,0.462-0.128,0.799-0.384,1.011s-0.664,0.317-1.225,0.317h-3.896
	c-0.315,0-0.576-0.024-0.782-0.073c-0.207-0.05-0.369-0.121-0.487-0.215c-0.118-0.093-0.202-0.204-0.25-0.332
	c-0.049-0.128-0.074-0.275-0.074-0.442v-0.531c0-0.178,0.02-0.332,0.059-0.465c0.04-0.133,0.118-0.244,0.236-0.332
	c0.118-0.089,0.28-0.155,0.487-0.199c0.207-0.045,0.477-0.066,0.812-0.066H89.063L89.063,43.784z M96.604,40.021
	c-0.591,0-1.05,0.083-1.38,0.251c-0.33,0.167-0.573,0.403-0.73,0.708v-0.93h-1.048v7.291h1.048v-4.442
	c0-0.709,0.184-1.213,0.553-1.513c0.369-0.301,0.922-0.45,1.661-0.45h2.626c0.719,0,1.267,0.167,1.646,0.502
	c0.379,0.334,0.568,0.821,0.568,1.461h1.063c0-0.374-0.052-0.735-0.155-1.085c-0.103-0.35-0.278-0.657-0.523-0.923
	c-0.246-0.266-0.573-0.477-0.981-0.635c-0.409-0.157-0.913-0.235-1.513-0.235H96.604L96.604,40.021z M106.478,40.006
	c-0.581,0-1.072,0.071-1.476,0.214c-0.403,0.143-0.73,0.342-0.981,0.598c-0.25,0.256-0.435,0.561-0.553,0.915
	s-0.177,0.737-0.177,1.151v1.594c0,0.935,0.261,1.646,0.782,2.133s1.323,0.73,2.406,0.73h2.937c0.591,0,1.088-0.076,1.491-0.229
	c0.403-0.153,0.73-0.362,0.981-0.628s0.431-0.57,0.539-0.915c0.108-0.344,0.162-0.708,0.162-1.092v-1.594
	c0-0.374-0.052-0.736-0.155-1.085c-0.104-0.35-0.278-0.657-0.523-0.923c-0.246-0.266-0.573-0.477-0.981-0.635
	c-0.409-0.157-0.913-0.235-1.514-0.235H106.478L106.478,40.006z M104.367,44.478v-1.594c0-0.709,0.184-1.213,0.553-1.514
	c0.369-0.3,0.922-0.449,1.661-0.449h2.73c0.718,0,1.267,0.164,1.646,0.494c0.379,0.329,0.568,0.814,0.568,1.454v1.608
	c0,0.708-0.199,1.213-0.598,1.513c-0.399,0.3-0.938,0.45-1.616,0.45h-2.73C105.105,46.44,104.367,45.786,104.367,44.478
	L104.367,44.478z M116.985,40.006c-0.58,0-1.072,0.071-1.476,0.214s-0.73,0.342-0.981,0.598s-0.436,0.561-0.554,0.915
	s-0.177,0.737-0.177,1.151v1.594c0,0.935,0.261,1.646,0.782,2.133s1.323,0.73,2.405,0.73h2.938c0.591,0,1.087-0.076,1.49-0.229
	c0.403-0.153,0.73-0.362,0.981-0.628s0.431-0.57,0.539-0.915c0.108-0.344,0.162-0.708,0.162-1.092v-1.594
	c0-0.374-0.052-0.736-0.154-1.085c-0.104-0.35-0.278-0.657-0.524-0.923s-0.573-0.477-0.981-0.635
	c-0.408-0.157-0.912-0.235-1.513-0.235H116.985L116.985,40.006z M114.875,44.478v-1.594c0-0.709,0.185-1.213,0.554-1.514
	c0.369-0.3,0.923-0.449,1.66-0.449h2.73c0.719,0,1.267,0.164,1.646,0.494c0.379,0.329,0.568,0.814,0.568,1.454v1.608
	c0,0.708-0.199,1.213-0.598,1.513s-0.938,0.45-1.616,0.45h-2.73C115.613,46.44,114.875,45.786,114.875,44.478L114.875,44.478z
	 M127.716,40.021c-0.591,0-1.051,0.083-1.38,0.251c-0.33,0.167-0.573,0.403-0.73,0.708v-0.93h-1.048v7.291h1.048v-4.442
	c0-0.709,0.184-1.213,0.553-1.513c0.369-0.301,0.923-0.45,1.661-0.45h2.627c0.718,0,1.267,0.167,1.646,0.502
	c0.379,0.334,0.568,0.821,0.568,1.461h1.063c0-0.374-0.052-0.735-0.155-1.085s-0.277-0.657-0.523-0.923s-0.573-0.477-0.981-0.635
	c-0.409-0.157-0.913-0.235-1.514-0.235H127.716L127.716,40.021z M136.601,42.884c-0.797,0-1.378,0.159-1.742,0.479
	c-0.363,0.319-0.546,0.73-0.546,1.232v0.886c0,0.639,0.185,1.108,0.554,1.409c0.369,0.3,0.933,0.45,1.689,0.45h4.635
	c0.345,0,0.615-0.057,0.812-0.17c0.197-0.113,0.364-0.248,0.502-0.406v0.576h1.063v-4.723c0-0.395-0.052-0.751-0.155-1.07
	c-0.103-0.32-0.266-0.591-0.486-0.812c-0.222-0.222-0.507-0.392-0.856-0.51c-0.35-0.117-0.77-0.177-1.262-0.177h-3.483
	c-0.836,0-1.483,0.172-1.94,0.517c-0.458,0.345-0.687,0.816-0.687,1.417v0.177h1.093v-0.177c0-0.295,0.145-0.541,0.435-0.738
	c0.291-0.196,0.751-0.295,1.38-0.295h3.1c0.64,0,1.098,0.145,1.373,0.436c0.275,0.29,0.413,0.646,0.413,1.069v1.033
	c-0.05-0.167-0.183-0.31-0.398-0.428c-0.217-0.118-0.531-0.177-0.944-0.177H136.601L136.601,42.884z M140.865,43.784
	c0.521,0,0.92,0.105,1.196,0.317c0.275,0.211,0.413,0.548,0.413,1.011c0,0.462-0.128,0.799-0.384,1.011s-0.664,0.317-1.226,0.317
	h-3.896c-0.314,0-0.575-0.024-0.781-0.073c-0.207-0.05-0.369-0.121-0.487-0.215c-0.118-0.093-0.202-0.204-0.251-0.332
	s-0.074-0.275-0.074-0.442v-0.531c0-0.178,0.021-0.332,0.06-0.465s0.118-0.244,0.236-0.332c0.118-0.089,0.28-0.155,0.486-0.199
	c0.207-0.045,0.478-0.066,0.812-0.066H140.865L140.865,43.784z M148.098,46.44c-0.443,0-0.813-0.131-1.107-0.392
	s-0.442-0.69-0.442-1.291v-3.646h5.49V40.05h-5.49v-1.402h-1.063v1.402h-0.915v1.063h0.915v3.513c0,0.935,0.233,1.621,0.701,2.059
	c0.467,0.438,1.104,0.657,1.911,0.657h2.11c0.482,0,0.888-0.062,1.218-0.185c0.329-0.123,0.598-0.28,0.804-0.473
	c0.207-0.191,0.354-0.403,0.443-0.635c0.089-0.23,0.133-0.45,0.133-0.656h-1.151c0,0.089-0.022,0.194-0.066,0.317
	s-0.123,0.238-0.236,0.347s-0.271,0.199-0.473,0.272c-0.201,0.074-0.454,0.111-0.76,0.111H148.098L148.098,46.44z M161.041,45.54
	c0,0.236,0.034,0.462,0.104,0.679c0.068,0.217,0.194,0.408,0.376,0.576c0.182,0.167,0.431,0.3,0.745,0.398
	c0.314,0.098,0.719,0.147,1.21,0.147h4.147c0.915,0,1.579-0.165,1.993-0.494c0.413-0.33,0.619-0.761,0.619-1.292v-0.413
	c0-0.679-0.216-1.166-0.649-1.461c-0.433-0.296-1.048-0.453-1.845-0.473l-4.251-0.089c-0.442-0.01-0.784-0.078-1.025-0.206
	s-0.361-0.359-0.361-0.693v-0.311c0-0.649,0.462-0.974,1.387-0.974h4.147c0.354,0,0.635,0.029,0.842,0.088
	c0.206,0.06,0.366,0.139,0.479,0.236c0.113,0.099,0.185,0.209,0.214,0.332s0.045,0.249,0.045,0.377v0.369h1.062v-0.502
	c0-0.207-0.036-0.416-0.11-0.627c-0.073-0.212-0.211-0.406-0.413-0.584c-0.201-0.177-0.484-0.322-0.849-0.435
	c-0.364-0.113-0.836-0.17-1.417-0.17h-3.896c-0.875,0-1.518,0.177-1.926,0.531c-0.408,0.354-0.612,0.797-0.612,1.328v0.34
	c0,0.669,0.222,1.134,0.664,1.395s1.058,0.396,1.845,0.405l4.236,0.089c0.442,0.01,0.784,0.104,1.025,0.28
	c0.241,0.178,0.361,0.429,0.361,0.753v0.311c0,0.334-0.138,0.585-0.413,0.752s-0.669,0.251-1.181,0.251h-3.97
	c-0.306,0-0.557-0.024-0.753-0.073c-0.197-0.05-0.353-0.118-0.465-0.207c-0.113-0.089-0.192-0.197-0.236-0.325
	s-0.066-0.275-0.066-0.442v-0.384h-1.063V45.54L161.041,45.54z M173.793,42.884c-0.798,0-1.378,0.159-1.742,0.479
	c-0.363,0.319-0.546,0.73-0.546,1.232v0.886c0,0.639,0.185,1.108,0.554,1.409c0.369,0.3,0.933,0.45,1.689,0.45h4.635
	c0.344,0,0.615-0.057,0.812-0.17s0.364-0.248,0.502-0.406v0.576h1.063v-4.723c0-0.395-0.052-0.751-0.155-1.07
	c-0.103-0.32-0.266-0.591-0.486-0.812c-0.222-0.222-0.507-0.392-0.856-0.51c-0.35-0.117-0.77-0.177-1.262-0.177h-3.483
	c-0.836,0-1.483,0.172-1.94,0.517c-0.458,0.345-0.687,0.816-0.687,1.417v0.177h1.092v-0.177c0-0.295,0.146-0.541,0.436-0.738
	c0.29-0.196,0.751-0.295,1.38-0.295h3.1c0.64,0,1.097,0.145,1.373,0.436c0.275,0.29,0.413,0.646,0.413,1.069v1.033
	c-0.05-0.167-0.183-0.31-0.398-0.428c-0.217-0.118-0.531-0.177-0.945-0.177H173.793L173.793,42.884z M178.058,43.784
	c0.521,0,0.92,0.105,1.195,0.317c0.276,0.211,0.414,0.548,0.414,1.011c0,0.462-0.128,0.799-0.384,1.011s-0.664,0.317-1.226,0.317
	h-3.896c-0.314,0-0.575-0.024-0.782-0.073c-0.206-0.05-0.368-0.121-0.486-0.215c-0.118-0.093-0.202-0.204-0.251-0.332
	c-0.05-0.128-0.074-0.275-0.074-0.442v-0.531c0-0.178,0.021-0.332,0.06-0.465s0.118-0.244,0.236-0.332
	c0.117-0.089,0.28-0.155,0.486-0.199c0.207-0.045,0.478-0.066,0.812-0.066H178.058L178.058,43.784z M183.371,46.528
	c0.108,0.108,0.222,0.212,0.34,0.311c0.117,0.099,0.255,0.185,0.413,0.259c0.157,0.073,0.344,0.133,0.561,0.177
	s0.487,0.066,0.812,0.066h2.863c1.072,0,1.857-0.251,2.354-0.753c0.497-0.499,0.745-1.203,0.745-2.105v-1.592
	c0-0.433-0.064-0.826-0.192-1.181s-0.321-0.654-0.582-0.905c-0.262-0.251-0.586-0.445-0.975-0.583s-0.839-0.206-1.351-0.206h-2.863
	c-0.64,0-1.119,0.083-1.438,0.251c-0.32,0.167-0.549,0.358-0.687,0.575v-3.744h-1.063v10.229h1.063V46.528L183.371,46.528z
	 M185.629,46.44c-0.394,0-0.732-0.05-1.019-0.147c-0.285-0.099-0.521-0.236-0.708-0.413c-0.187-0.178-0.327-0.387-0.421-0.628
	c-0.093-0.241-0.14-0.499-0.14-0.774v-1.594c0-0.561,0.185-1.028,0.553-1.402c0.369-0.374,0.947-0.561,1.734-0.561h2.361
	c0.837,0,1.446,0.169,1.83,0.509s0.576,0.824,0.576,1.454v1.594c0,0.679-0.188,1.176-0.562,1.49
	c-0.373,0.315-0.988,0.473-1.845,0.473H185.629L185.629,46.44z M192.964,37.098v10.243h1.063v-3.853h1.756l3.926,3.853h1.476
	l-4.457-4.398l3.896-2.893h-1.564l-3.306,2.376h-1.727v-5.328H192.964L192.964,37.098z M203.311,40.05h-1.063v7.291h1.063V40.05
	L203.311,40.05z M203.311,37.098h-1.063v1.063h1.063V37.098L203.311,37.098z M205.288,44.876h1.063v-7.778h-1.063V44.876
	L205.288,44.876z M205.288,46.189v1.151h1.063v-1.151H205.288z"/>
</svg>
