<?xml version="1.0" encoding="UTF-8"?>
<svg width="74px" height="88px" viewBox="0 0 74 88" version="1.1" xmlns="http://www.w3.org/2000/svg" xmlns:xlink="http://www.w3.org/1999/xlink">
    <!-- Generator: Sketch 48.2 (47327) - http://www.bohemiancoding.com/sketch -->
    <title>Color</title>
    <desc>Created with Sketch.</desc>
    <defs></defs>
    <g id="Page-1" stroke="none" stroke-width="1" fill="none" fill-rule="evenodd">
        <g id="Steps---2" transform="translate(0.000000, -113.000000)">
            <g id="Color" transform="translate(0.609375, 113.000000)">
                <path d="M35.9110145,85.3426668 C22.8646342,77.7351343 15.7555842,71.6879513 10.6840415,62.8445762 C4.96697332,52.8755825 2.31622402,39.4349838 2.17283442,19.1683156 L2.16316905,17.8022138 L3.52242291,17.6652596 C8.17419157,17.1965619 11.3040487,15.4285303 17.8193549,10.4050442 C18.0621588,10.2178443 18.0621588,10.2178443 18.3059816,10.0300521 C25.6930874,4.34343534 30.0320832,2.16660937 36.6666094,2.16660937 C43.3014189,2.16660937 47.6397744,4.34325631 55.0283921,10.0309499 C55.2716275,10.2182863 55.2716275,10.2182863 55.5139137,10.4050826 C62.0280651,15.4278727 65.1589064,17.1964173 69.8108379,17.6652638 L71.1700494,17.8022524 L71.1603843,19.1683156 C71.0169947,39.4349838 68.3662454,52.8755825 62.6491773,62.8445762 C57.5776345,71.6879513 50.4685846,77.7351343 37.4222043,85.3426668 L36.6666094,85.7832651 L35.9110145,85.3426668 Z M71.4998281,17.0830469 C66.9009571,17.0830469 63.213513,15.3611982 58.0828047,11.5267697 C57.4808933,11.076932 57.004058,10.7121186 55.9211251,9.87724058 C55.0855996,9.23306285 54.7100471,8.94484803 54.2363545,8.58624279 C47.7318122,3.66203089 43.0302843,1.5 36.6666094,1.5 C30.3029519,1.5 25.6015209,3.66197529 19.0967267,8.58625377 C18.6230471,8.94484013 18.2476911,9.23289578 17.4119108,9.87724906 C16.3299245,10.7114285 15.8531392,11.0762184 15.2515598,11.5258363 C10.120217,15.3609794 6.43266576,17.0830469 1.83339063,17.0830469 C1.64948367,17.0830469 1.5,17.2325112 1.5,17.4164375 C1.5,38.587248 4.12137141,52.6025263 9.94951521,62.8934292 C15.1723398,72.1160137 22.5350361,78.3927442 36.4996291,86.4551385 C36.5510453,86.484804 36.6082415,86.5 36.6666094,86.5 C36.7249773,86.5 36.7821735,86.484804 36.8332313,86.4553453 C50.7980112,78.3929555 58.1608546,72.1161297 63.3840375,62.8934465 C69.2118312,52.6022742 71.8332188,38.5866967 71.8332188,17.4164375 C71.8332188,17.2325112 71.6837351,17.0830469 71.4998281,17.0830469 Z" id="Fill-1" stroke="#156095" stroke-width="3"></path>
                <path d="M15.0052031,20.9381563 C14.5332344,20.0421719 13.4246406,19.6984219 12.5288281,20.1702188 C12.3010938,20.2900156 12.0700938,20.4079219 11.8382344,20.5222188 C10.929875,20.9692656 10.5560469,22.0684063 11.0032656,22.9767656 C11.3222656,23.6249063 11.9728125,24.000625 12.6493125,24.000625 C12.9210469,24.000625 13.1975938,23.940125 13.4578125,23.8119063 C13.71975,23.683 13.9799688,23.5501406 14.2370938,23.414875 C15.1330781,22.9427344 15.4768281,21.8341406 15.0052031,20.9381563" id="Fill-2" fill="#156095"></path>
                <path d="M63.4076094,35.3144687 C63.4639844,35.3194531 63.5200156,35.3220312 63.5755312,35.3220312 C64.5129375,35.3220312 65.3130156,34.6066875 65.399125,33.6545 C65.4206094,33.4202344 65.4410625,33.1852812 65.4608281,32.9511875 C65.5464219,31.9421094 64.7977344,31.0550625 63.7886562,30.9694687 C62.7809531,30.8826719 61.8925312,31.6325625 61.8072812,32.6416406 C61.7880312,32.8683437 61.7682656,33.0955625 61.7474687,33.3224375 C61.6560312,34.331 62.3992187,35.2228594 63.4076094,35.3144687" id="Fill-3" fill="#156095"></path>
                <path d="M18.6288437,20.30325 C19.0004375,20.30325 19.3758125,20.1905 19.7003125,19.9558906 C20.7623281,19.1891563 21.7968437,18.401625 22.7969844,17.6397031 C27.476625,14.0767344 31.51775,10.9994844 36.6666094,10.9994844 C37.679125,10.9994844 38.5,10.1787813 38.5,9.16626563 C38.5,8.15392188 37.679125,7.332875 36.6666094,7.332875 C30.2807656,7.332875 25.5665781,10.9221406 20.5756719,14.7224688 C19.5935781,15.4704688 18.5779687,16.2435625 17.5539375,16.9829688 C16.7327187,17.5759375 16.548125,18.7218281 17.14075,19.5425313 C17.4991094,20.0394219 18.0599375,20.30325 18.6288437,20.30325" id="Fill-4" fill="#156095"></path>
                <path d="M36.6666094,75.5027969 C31.9747656,72.6099688 26.307875,68.7254219 22.0587812,63.7159531 C21.4039375,62.9435469 20.246875,62.8488438 19.4749844,63.5033438 C18.7025781,64.1581875 18.6073594,65.31525 19.2622031,66.0876563 C24.1439687,71.8435781 30.6197031,76.1291094 35.7157969,79.2197656 C35.72525,79.2250938 35.7350469,79.2290469 35.7445,79.234375 C35.7885,79.2598125 35.8335312,79.2819844 35.8794219,79.3038125 C35.9086406,79.3177344 35.9380312,79.3332031 35.9677656,79.3454063 C36.0090156,79.3624219 36.0507812,79.3754844 36.0930625,79.3894063 C36.1284687,79.4012656 36.1633594,79.4146719 36.1991094,79.4239531 C36.2374375,79.4340938 36.2764531,79.4401094 36.315125,79.4476719 C36.3541406,79.4554063 36.3933281,79.4652031 36.4326875,79.4701875 C36.4882031,79.4772344 36.5438906,79.479125 36.6002656,79.4813594 C36.62175,79.4820469 36.6430625,79.4854844 36.6647187,79.4854844 C36.6655781,79.4854844 36.6662656,79.4854844 36.6666094,79.4854844 C36.6672969,79.4854844 36.6681562,79.4854844 36.6685,79.4854844 C36.6898125,79.4854844 36.7112969,79.481875 36.7329531,79.4813594 C36.7893281,79.479125 36.8453594,79.4774063 36.900875,79.4701875 C36.9398906,79.4652031 36.9782187,79.4554063 37.0168906,79.4480156 C37.0564219,79.4404531 37.0957812,79.4344375 37.1344531,79.4239531 C37.1698594,79.4146719 37.20475,79.4014375 37.2396406,79.3899219 C37.2819219,79.376 37.3242031,79.3627656 37.3657969,79.3454063 C37.3955312,79.333375 37.4245781,79.3179063 37.4537969,79.3038125 C37.4996875,79.2819844 37.5452344,79.2598125 37.5887187,79.234375 C37.5985156,79.2290469 37.6079687,79.2250938 37.6174219,79.2197656 C42.7135156,76.1292813 49.18925,71.84375 54.0710156,66.0873125 C59.6375312,59.5215156 63.1463594,50.6362656 64.7975625,38.9240156 C64.9388437,37.9212969 64.2406875,36.994375 63.2381406,36.8529219 C62.2342187,36.7116406 61.3081562,37.409625 61.1665312,38.4123438 C59.6150156,49.4176719 56.3794687,57.6946563 51.2744375,63.716125 C47.0256875,68.7254219 41.3593125,72.6099688 36.6666094,75.5027969" id="Fill-5" fill="#156095"></path>
                <path d="M54.3339844,28.7703281 L30.9943906,52.1092344 C30.9906094,52.1135312 30.9861406,52.1174844 30.9823594,52.1214375 L30.8118594,52.2732031 C30.8099688,52.2745781 30.8079063,52.2762969 30.8058438,52.2781875 L30.5877344,52.4325312 L30.2781875,52.5932344 C30.2773281,52.5935781 30.2762969,52.5940937 30.2756094,52.5944375 L30.0703906,52.6695469 C30.0681563,52.6702344 30.0662656,52.6710937 30.0640313,52.6717812 L29.7474375,52.7458594 C29.7436563,52.7465469 29.739875,52.7472344 29.73575,52.7480937 L29.5772813,52.7668281 C29.5733281,52.7676875 29.569375,52.7680312 29.5655938,52.768375 L29.475875,52.7737031 C29.4719219,52.7737031 29.4683125,52.7740469 29.4643594,52.7743906 L29.3734375,52.7762812 L29.3158594,52.7750781 L29.2832031,52.7743906 C29.27925,52.7740469 29.2752969,52.7737031 29.2713438,52.7737031 L29.1797344,52.768375 C29.1764688,52.7680312 29.1730313,52.7676875 29.16925,52.7668281 L29.0114688,52.7480937 C29.0068281,52.7472344 29.0025313,52.7462031 28.9978906,52.7455156 L28.6823281,52.6717812 C28.6819844,52.6717812 28.6812969,52.6714375 28.6809531,52.6714375 L28.5008281,52.6062969 L28.1563906,52.4308125 L27.8394531,52.19225 L18.9999219,43.3575312 C18.1065156,42.4637812 18.1065156,41.0088594 18.9999219,40.1151094 C19.4296094,39.6854219 20.0053906,39.44875 20.6213906,39.44875 C21.2367031,39.44875 21.8126563,39.6854219 22.2423438,40.1147656 L28.0768125,45.9499219 C28.4205625,46.2940156 28.8868594,46.4872031 29.3729219,46.4872031 C29.8591563,46.4872031 30.3254531,46.2940156 30.6695469,45.9502656 L51.0917344,25.5285937 C51.5214219,25.0989062 52.0972031,24.8622344 52.7125156,24.8622344 C53.3278281,24.8622344 53.9034375,25.0989062 54.3334687,25.5289375 C55.2270469,26.4223437 55.2273906,27.8765781 54.3339844,28.7703281 Z" id="Fill-6" stroke="#EFC918" stroke-width="3"></path>
            </g>
        </g>
    </g>
</svg>