<?xml version="1.0" encoding="UTF-8"?>
<svg width="86px" height="88px" viewBox="0 0 86 88" version="1.1" xmlns="http://www.w3.org/2000/svg" xmlns:xlink="http://www.w3.org/1999/xlink">
    <!-- Generator: Sketch 48.2 (47327) - http://www.bohemiancoding.com/sketch -->
    <title>Color</title>
    <desc>Created with Sketch.</desc>
    <defs>
        <polygon id="path-1" points="0.0103125 0 60.5 0 60.5 66 0.0103125 66"></polygon>
    </defs>
    <g id="Page-1" stroke="none" stroke-width="1" fill="none" fill-rule="evenodd">
        <g id="Steps---4" transform="translate(0.000000, -118.000000)">
            <g id="Color" transform="translate(0.000000, 118.000000)">
                <g id="Group-3" transform="translate(0.000000, 22.000000)">
                    <mask id="mask-2" fill="white">
                        <use xlink:href="#path-1"></use>
                    </mask>
                    <g id="Clip-2"></g>
                    <path d="M4,56.65 C4,53.3766517 6.31710902,50.5050915 9.51591949,49.810613 L23.7603555,46.7197355 C24.3369994,46.5943781 24.746,46.0871587 24.746,45.496 L24.746,38.7475 C24.746,38.459592 24.5859313,38.0832765 24.347691,37.8314719 C23.8989019,37.3619694 23.4605216,36.5621002 22.4739648,34.623395 C21.8903728,33.4820664 21.6596344,33.0430499 21.3661373,32.5342492 C20.9441499,31.8027004 20.5858642,31.3008291 20.253244,30.9764209 C18.1741532,28.9451254 17.0515073,27.4151115 16.6756537,25.5656224 C16.3860929,24.1671054 16.4687837,23.4877434 16.9323808,22.5826701 C17.024254,22.4009653 17.0647173,22.3184724 17.1126621,22.2120899 C17.3018116,21.7923945 17.398,21.416342 17.398129,21.0076704 L17.3762982,19.3404086 C17.3731853,19.1844197 17.3731853,19.1844197 17.3699829,19.0209276 C17.3511811,18.0516227 17.3437179,17.362607 17.3490552,16.6510665 C17.3638919,14.6731393 17.474315,13.313695 17.7839465,12.4491503 C19.5318873,7.6020646 25.0136982,4.19834996 30.2159883,4.00046853 C32.432767,4.055888 34.215841,4.53049821 36.0763524,5.5634243 C36.4028565,5.74461613 36.7790696,5.88848362 37.2280603,6.00871088 C37.6234094,6.11457442 37.931708,6.17467523 38.7185118,6.31018237 C38.8211179,6.32802691 38.9446763,6.34714575 39.0987108,6.36929873 C39.1925833,6.3827993 39.5903948,6.43786558 39.6832684,6.45140017 C40.051518,6.50506566 40.1525827,6.52328363 40.355086,6.60428496 L40.6718593,6.73099426 L40.9026642,6.9822503 C41.8833872,8.0498728 42.2740778,9.26073664 42.31,12.2155 C42.31,12.3120522 42.3257734,12.4166239 42.3591614,12.5296353 C42.6675807,13.5792976 42.8573058,14.9388142 42.9645565,16.5832291 C43.0537475,17.9507454 43.0745,19.1050779 43.0745,20.9825 C43.0745,21.4099721 43.1699325,21.7822512 43.3601778,22.2050006 C43.4079335,22.3111199 43.4411928,22.3792836 43.5399002,22.5767372 C43.5983044,22.692155 43.621106,22.7380543 43.6543788,22.8094402 C44.0154102,23.584024 44.0538819,24.3187294 43.7979521,25.5602322 C43.4214844,27.4126924 42.311082,28.9246722 40.2184035,30.9772532 C39.8764265,31.3108381 39.5105229,31.829901 39.0747426,32.5974909 C38.7963026,33.0879394 38.6106436,33.4441532 38.0140512,34.6144902 C37.0657264,36.4999831 36.6034442,37.3521162 36.1229372,37.8612656 C35.886063,38.093205 35.754,38.4096331 35.754,38.7475 L35.754,45.496 C35.754,46.0840409 36.1653283,46.5948841 36.7390805,46.719613 L50.9842441,49.8106485 C54.182891,50.5050915 56.5,53.3766517 56.5,56.65 L56.5,62 L4,62 L4,56.65 Z M2.75,64.5 L57.75,64.5 C58.4395729,64.5 59,63.9395729 59,63.25 L59,56.65 C59,52.2194665 55.8460147,48.3076231 51.5136049,47.3633187 L38.254,44.4831587 L38.254,39.2411775 L38.5209792,38.8557988 C38.9997631,38.1646847 39.4098174,37.4107439 40.2471394,35.743659 C40.5025086,35.2390741 40.5844092,35.0779247 40.7210621,34.8130881 C40.7687417,34.7208031 40.7687417,34.7208031 40.8167196,34.6284742 C41.3072252,33.6860469 41.6113101,33.1551163 41.8901868,32.8386985 L41.966926,32.7578899 C44.4160785,30.3636204 45.768196,28.403871 46.249039,26.0689319 C46.6926283,23.922411 46.4196328,22.6169591 45.8732477,21.8863278 L45.5745,21.4868396 L45.5745,20.988 C45.5745,18.5840477 45.5392526,17.1644065 45.3887763,15.5079022 C45.2718694,14.2209443 45.0955024,13.0967511 44.8528451,12.1642541 L44.8092245,11.9966264 L44.8049556,11.8234687 C44.725303,8.59256027 44.1415649,6.81292046 42.7384652,5.2856047 C42.2689546,4.77713911 41.6498073,4.4369616 40.810332,4.19450571 C40.3579607,4.06385256 39.9813019,3.98864318 39.1334015,3.84459089 C38.7416074,3.77929186 38.5410109,3.74421984 38.3081946,3.69753207 C37.8778549,3.61123401 37.6045409,3.53932144 37.2870262,3.37895281 C35.0822799,2.1529726 32.8737984,1.56993347 30.2022162,1.49892738 C23.9445489,1.73570397 17.5246147,5.80739215 15.4358308,11.6029667 C14.9094243,13.0607079 14.7921281,15.1004684 14.8759874,19.4266475 L14.8690248,21.1255314 L14.7069943,21.4435162 C14.0008643,22.8292962 13.7844977,23.9219477 14.2292747,26.070454 C14.7096601,28.4072439 16.0607259,30.368044 18.4944699,32.7467881 L18.567114,32.8229542 C18.9521548,33.2561251 19.3551432,33.9969724 20.2579551,35.7703584 C21.0775293,37.3873561 21.5073491,38.1719477 21.9879974,38.8718391 L22.2515,39.2555359 L22.2515,44.4996587 L21.0698951,44.7563187 L8.9880128,47.3806566 C4.65534785,48.309762 1.5,52.2173223 1.5,56.65 L1.5,63.25 C1.5,63.9395729 2.06042712,64.5 2.75,64.5 Z M38.6792624,0.722153874 C38.6817818,0.72355496 38.6843011,0.72495674 38.6868204,0.726359214 C38.6833204,0.72460923 38.6803284,0.723035153 38.6778218,0.721627662 Z" id="Fill-1" stroke="#156095" stroke-width="3" mask="url(#mask-2)"></path>
                </g>
                <path d="M85.25,24.75 C85.25,11.1045 74.1455,0 60.5,0 C50.633,0 41.7395,5.8575 37.84,14.9215 C37.2405,16.313 37.8895,17.93 39.2865,18.535 C40.6725,19.118 42.295,18.4855 42.8945,17.0885 C45.925,10.0485 52.833,5.5 60.5,5.5 C71.115,5.5 79.75,14.135 79.75,24.75 C79.75,36.5915 69.234,46.1395 56.7545,43.615 C55.264,43.307 53.812,44.275 53.515,45.7655 C53.218,47.256 54.1805,48.7025 55.671,49.005 C57.299,49.335 58.927,49.5 60.5,49.5 C74.1455,49.5 85.25,38.3955 85.25,24.75" id="Fill-4" fill="#EFC918"></path>
                <path d="M60.5,11 C58.982,11 57.75,12.232 57.75,13.75 L57.75,24.75 C57.75,25.4815 58.0415,26.18 58.553,26.697 L66.803,34.947 C67.342,35.4805 68.046,35.75 68.75,35.75 C69.454,35.75 70.158,35.4805 70.697,34.947 C71.7695,33.8745 71.7695,32.131 70.697,31.0585 L63.25,23.6115 L63.25,13.75 C63.25,12.232 62.018,11 60.5,11" id="Fill-5" fill="#EFC918"></path>
            </g>
        </g>
    </g>
</svg>