<?xml version="1.0" encoding="UTF-8"?>
<svg width="76px" height="88px" viewBox="0 0 76 88" version="1.1" xmlns="http://www.w3.org/2000/svg" xmlns:xlink="http://www.w3.org/1999/xlink">
    <!-- Generator: Sketch 48.2 (47327) - http://www.bohemiancoding.com/sketch -->
    <title>Color</title>
    <desc>Created with Sketch.</desc>
    <defs></defs>
    <g id="Page-1" stroke="none" stroke-width="1" fill="none" fill-rule="evenodd">
        <g id="Steps---3" transform="translate(0.000000, -113.000000)" stroke-width="3">
            <g id="Color" transform="translate(0.000000, 113.000000)">
                <path d="M52.0733674,61.1016542 C52.0740543,61.1018579 52.074781,61.1020745 52.0756859,61.1023441 C52.0751089,61.1021592 52.0746149,61.1020009 52.0739671,61.1018069 Z M52.3694343,61.1916245 C52.3724824,61.19282 52.3757887,61.1941281 52.3796025,61.1956371 C52.3786247,61.1949218 52.3778717,61.1943711 52.375401,61.1933608 Z M52.6984581,61.3285591 C52.7044069,61.3315746 52.7091303,61.3341188 52.7160987,61.3378724 C52.7123594,61.3357747 52.7102789,61.3346075 52.7050242,61.3319964 Z M53.7956387,62.1591565 C53.8044963,62.1693529 53.8114555,62.1775987 53.8174391,62.1849851 C53.8115893,62.1778404 53.8046003,62.1695696 53.7956387,62.1591565 Z M53.8569132,62.2390042 C53.8570624,62.239214 53.8564542,62.2383585 53.8552377,62.2366475 C53.8550418,62.2363601 53.8548473,62.2360747 53.8546539,62.2357911 Z M24.0248864,61.1071782 C24.0243049,61.1073585 24.0242919,61.1074023 24.0242755,61.1074579 C24.0251107,61.1072031 24.0259207,61.106956 24.0267091,61.1067156 Z M24.8509259,63.9915249 C24.8418295,63.9941125 24.8322507,63.9966083 24.8104634,64.0022851 C24.7944791,64.0065401 24.7944791,64.0065401 24.7816371,64.0099283 C24.775446,64.0115929 24.7705773,64.0128998 24.7667352,64.0139301 C24.7618556,64.0158054 24.7557034,64.0181694 24.7478445,64.0211892 C24.7130384,64.034279 24.7111595,64.0350065 24.725677,64.0287336 C24.7336735,64.0252351 24.736412,64.0238949 24.6906452,64.0471866 C24.6883927,64.0482807 24.6864786,64.0492105 24.6848218,64.0500152 C24.6814947,64.0521122 24.6773405,64.0547263 24.6721969,64.0579604 C24.666549,64.0615478 24.666549,64.0615478 24.6605646,64.0653443 C24.6515371,64.0710505 24.6515371,64.0710505 24.6440491,64.0757294 C24.6431073,64.0763138 24.6422298,64.0768584 24.6414102,64.0773669 C24.6382826,64.0797715 24.6294141,64.0865876 24.6059465,64.1047327 C24.6142361,64.098524 24.6151091,64.097837 24.6157557,64.0973083 C24.6137001,64.098961 24.6125524,64.0998934 24.6096724,64.1022307 C24.6062184,64.105451 24.5985689,64.1125956 24.5817792,64.1283134 C24.5763302,64.1346085 24.5667088,64.1456653 24.5503834,64.1644008 C24.5457091,64.1708393 24.5383304,64.1810285 24.5263395,64.1975895 C24.5135822,64.2152328 24.5135822,64.2152328 24.5095459,64.2215321 C24.5228898,64.201961 24.5283152,64.1928914 24.5037555,64.2355105 C24.5029424,64.2368895 24.5021783,64.2381855 24.5014628,64.2393986 C24.4989493,64.2448289 24.4948218,64.2536764 24.4831101,64.2787655 C24.481561,64.2834021 24.4787919,64.2914978 24.4743553,64.3043971 C24.4708014,64.3145762 24.4687395,64.320482 24.4671962,64.3248817 C24.4651436,64.3334591 24.4619868,64.3468993 24.4570145,64.3683442 C24.455879,64.3762495 24.4541143,64.3887513 24.4511937,64.4094769 C24.4505049,64.4143308 24.4507795,64.4121954 24.4513286,64.4079247 C24.4485762,64.4288982 24.4485762,64.4288982 24.4474338,64.4370601 C24.4471584,64.4390673 24.4471584,64.4390673 24.44763,64.4355507 C24.4495941,64.4208498 24.4501766,64.4164902 24.4502701,64.4157708 C24.4504951,64.4154763 24.4501799,64.4223998 24.4499707,64.4269463 C24.4493792,64.4434766 24.4488606,64.4579701 24.4483985,64.4707367 C24.4493152,64.4970844 24.4490672,64.5079015 24.4482537,64.5234743 L24.4482537,71.8386146 L17.4540488,71.8386146 C17.1985656,71.8386146 16.9914341,72.0457618 16.9914341,72.3014439 L16.9914341,86.0380293 C16.9914341,86.2927924 17.1985053,86.4997854 17.4540488,86.4997854 L58.6638049,86.4997854 C58.918728,86.4997854 59.1257756,86.292769 59.1257756,86.0380293 L59.1257756,72.3014439 C59.1257756,72.0457853 58.9186675,71.8386146 58.6638049,71.8386146 L51.6689561,71.8386146 L51.6689561,64.4512 C51.6689561,64.3331012 51.6248729,64.2245204 51.5757886,64.1712553 C51.5613242,64.1551484 51.5484566,64.1408197 51.5369654,64.1280084 C51.5383039,64.1291128 51.5399264,64.1304726 51.5418643,64.1321153 C51.5399404,64.1304403 51.538093,64.1288319 51.5363177,64.1272863 C51.5029169,64.0900465 51.4812158,64.0657025 51.4657316,64.0477688 C51.4657039,64.0477602 51.4656762,64.0477516 51.4656485,64.047743 C51.4805016,64.0650437 51.5012434,64.0885016 51.5333337,64.1246882 C51.5186252,64.1118812 51.5091762,64.1036435 51.5022101,64.0975042 C51.4957342,64.0922299 51.4908354,64.0884029 51.4885928,64.0867548 C51.4717767,64.0744986 51.4691102,64.0725552 51.463156,64.0681126 C51.4597082,64.0656527 51.4618888,64.0672401 51.46625,64.0704148 C51.4668342,64.0708321 51.4564396,64.064178 51.4599938,64.0659071 C51.439947,64.0539776 51.4272177,64.0464027 51.4183339,64.0410776 C51.4065558,64.035543 51.3966372,64.030881 51.3882,64.0269084 C51.377313,64.0225387 51.364955,64.0179172 51.3510344,64.0130612 L51.3513321,64.0122079 C51.3253169,64.0040347 51.3116287,63.999568 51.3029306,63.9964185 C51.3184472,64.0013841 51.3335355,64.0065099 51.3659852,64.0175191 C51.3391333,64.0093533 51.3214068,64.0045684 51.2872565,63.9962405 C46.0095889,62.7979523 42.4270984,57.8511539 42.8844857,52.496131 L42.9742114,51.4456346 L43.9930219,51.1743072 C52.3345745,48.9528024 58.8473751,42.2424292 60.8072701,33.8290151 L60.981175,33.0824782 L61.6880582,32.7860386 C69.3715457,29.5638791 74.4326244,21.974023 74.4326244,13.6266927 C74.4326244,13.3709111 74.225608,13.1638634 73.9700098,13.1638634 L61.4163512,13.1638634 L61.4163512,2.04889756 C61.4163512,1.79333059 61.2093348,1.58628293 60.9543805,1.58628293 L14.966439,1.58628293 C14.7116915,1.58628293 14.5046829,1.79333843 14.5046829,2.04889756 L14.5046829,13.1638634 L1.96282927,13.1638634 C1.70713932,13.1638634 1.5,13.3710027 1.5,13.6266927 C1.5,21.9692543 6.55580178,29.5557985 14.2328589,32.7815033 L14.939161,33.0782736 L15.1127793,33.8244585 C17.0863552,42.306584 23.6852296,49.0549701 32.1130224,51.2248168 L33.1496211,51.4917028 L33.234321,52.5587506 C33.6570049,57.8837147 30.0828527,62.7955837 24.8509259,63.9915249 Z M24.6059465,64.1047327 C24.6019956,64.1077876 24.597631,64.1111635 24.5928102,64.1148935 C24.6037746,64.106533 24.6092567,64.1023528 24.6122367,64.1000614 Z M24.5615949,64.1472153 C24.5593378,64.1493296 24.5569809,64.1515375 24.5545198,64.1538432 C24.5576943,64.1509307 24.5600573,64.1487628 24.5621317,64.146827 Z M24.4502701,64.4157708 C24.4503095,64.4154675 24.450262,64.4158112 24.4501944,64.4162998 C24.4502878,64.4154072 24.4503453,64.4150724 24.4503753,64.4151534 Z M24.4478461,64.4688 C24.4479074,64.4662934 24.4479706,64.4637009 24.4480359,64.4610177 C24.4481137,64.4629873 24.4481862,64.4648809 24.4482537,64.4667041 L24.4482537,64.4688 L24.4478461,64.4688 Z M24.4479375,64.5293183 C24.4478864,64.5302426 24.4478338,64.5311881 24.4477799,64.5321581 C24.4478327,64.5309431 24.4478676,64.5301417 24.4479031,64.5283814 Z M51.4540607,64.0340627 C51.436213,64.0127408 51.428014,64.0008876 51.4132372,63.9793095 C51.4287636,64.0017942 51.4369673,64.0135402 51.4540607,64.0340627 Z M51.4132372,63.9793095 C51.41285,63.9787442 51.4124583,63.9781722 51.4120619,63.9775931 C51.4103889,63.9752393 51.4095832,63.9741057 51.4095889,63.9741133 C51.4122139,63.9778276 51.4127295,63.9785743 51.4132372,63.9793095 Z M51.3922593,64.0249807 C51.3916118,64.024565 51.3909422,64.0241346 51.3902439,64.0236855 C51.3900386,64.0236045 51.390834,64.0240983 51.3923316,64.0250032 C51.3923075,64.0249957 51.3922834,64.0249882 51.3922593,64.0249807 Z M51.3902439,64.0236855 C51.3897154,64.0233457 51.3891705,64.0229951 51.3886062,64.0226321 C51.3888759,64.0228296 51.3890971,64.0229915 51.3895325,64.0232749 Z M51.4231527,64.0433419 C51.4234382,64.0435113 51.4237262,64.0436822 51.4240166,64.0438546 C51.4246786,64.0441371 51.4255035,64.0444848 51.4266518,64.044986 C51.4254685,64.04443 51.4243023,64.043882 51.4231527,64.0433419 Z M51.4240166,64.0438546 C51.4269404,64.0455899 51.4301154,64.0474742 51.433564,64.0495209 C51.4281214,64.0464143 51.42061,64.0425344 51.424126,64.0439194 Z M51.3489336,64.008231 C51.3487472,64.00814 51.3485625,64.0080497 51.3483794,64.0079601 L51.3224133,64.0033712 C51.3301548,64.0048329 51.3388808,64.0064294 51.3489336,64.008231 Z M51.3502123,64.008284 C51.350411,64.0083778 51.3506115,64.0084723 51.3508139,64.0085676 C51.3513709,64.0086673 51.351932,64.0087675 51.3524971,64.0088684 L51.3525564,64.0086983 L51.3502123,64.008284 Z M51.3029306,63.9964185 C51.294651,63.9934205 51.2908927,63.9916159 51.2853277,63.9889439 C51.2945607,63.9926241 51.2996176,63.9946398 51.3083063,63.9977519 Z M14.5046829,28.5499937 C14.504903,28.5595598 14.5051678,28.5717598 14.5055158,28.5877877 C14.5071086,28.8599639 14.5132353,29.1354644 14.5237987,29.4163264 L14.6265601,32.1485706 L12.2670109,30.767178 C6.84935592,27.5954245 3.21857978,22.0022166 2.54231947,15.7506274 L2.36260759,14.0893073 L14.5046829,14.0893073 L14.5046829,28.5499937 Z M58.2011902,85.5752 L17.9160195,85.5752 L17.9160195,72.7640585 L58.2011902,72.7640585 L58.2011902,85.5752 Z M50.7443707,71.8386146 L25.372839,71.8386146 L25.372839,64.9140293 L50.7443707,64.9140293 L50.7443707,71.8386146 Z M31.0194349,61.4663238 C31.5137947,60.9363067 31.9559373,60.3688943 32.3417621,59.766911 C33.5765208,57.8370792 34.2137646,55.6318355 34.1988424,53.3690135 L34.1879505,51.7173519 L35.8330231,51.8651384 C36.5546912,51.9299701 37.2622697,51.9630049 37.960839,51.9630049 C38.7307047,51.9630049 39.5013283,51.9246074 40.2721022,51.8487366 L41.9275285,51.6857854 L41.9190243,53.3491907 C41.9036433,56.3576782 43.0604663,59.2663078 45.1146535,61.465551 L47.4720773,63.9894439 L28.6660604,63.9894439 L31.0194349,61.4663238 Z M60.4917659,28.5068488 C60.4917659,40.9314929 50.3853418,51.037561 37.9599805,51.037561 C25.5355143,51.037561 15.4292683,40.9313149 15.4292683,28.5068488 L15.4292683,2.51086829 L60.4917659,2.51086829 L60.4917659,28.5068488 Z M61.4163512,28.5533196 L61.4163512,14.0893073 L73.5700749,14.0893073 L73.3902993,15.7506789 C72.7132867,22.0072017 69.0765805,27.6047966 63.6520813,30.7744653 L61.2860477,32.1569971 L61.3965368,29.4188771 C61.4075783,29.1452498 61.4138911,28.8682946 61.4154927,28.5965659 C61.4158528,28.5781345 61.4161254,28.5641795 61.4163512,28.5533196 Z" id="Fill-1" stroke="#156095"></path>
                <path d="M44.1416585,78.7069073 L31.9755512,78.7069073 C31.7198613,78.7069073 31.512722,78.9140466 31.512722,79.1697366 C31.512722,79.4252197 31.7198691,79.6323512 31.9755512,79.6323512 L44.1416585,79.6323512 C44.3973407,79.6323512 44.6044878,79.4252197 44.6044878,79.1697366 C44.6044878,78.9140466 44.3973485,78.7069073 44.1416585,78.7069073 Z" id="Fill-2" stroke="#EFC918"></path>
                <path d="M48.417924,22.0643706 L48.4177562,22.0638538 C48.3635859,21.8969548 48.2187236,21.7748294 48.0443559,21.749522 L41.4310879,20.7885345 L41.0820755,20.0814084 L38.4730787,14.7953781 C38.3954497,14.6381529 38.2342427,14.5379512 38.0589268,14.5379512 C37.8825307,14.5379512 37.721947,14.6377743 37.6442269,14.795184 L34.6861219,20.7885345 L33.9057514,20.9019317 L28.0726006,21.7495587 C27.8983736,21.7748457 27.7533741,21.897063 27.6991978,22.0639805 C27.6448061,22.231511 27.6902038,22.415363 27.8168416,22.5388553 L32.6020708,27.203383 L32.4688037,27.9805878 L31.472553,33.7906538 C31.4427485,33.963924 31.5140991,34.1394376 31.6565551,34.2429546 C31.7981139,34.3458012 31.9875726,34.3594718 32.1427544,34.2779485 L38.0589699,31.1677498 L38.7569814,31.5347449 L43.9749651,34.2782165 C44.0403186,34.3126054 44.1132973,34.3303805 44.1886634,34.3303805 C44.2875021,34.3303805 44.3817735,34.3001244 44.4615132,34.2420961 C44.6031835,34.1391685 44.674883,33.9628532 44.645418,33.7900878 L43.5150409,27.2034814 L44.0797995,26.6529653 L48.3010372,22.5381815 C48.4269961,22.4153563 48.4722941,22.2316786 48.417924,22.0643706 Z M42.6954095,26.7109704 L42.6950967,26.7112752 C42.5867013,26.8169003 42.5368161,26.9703517 42.5623837,27.1195298 L43.5749811,33.0221358 L40.8850433,31.6086363 L38.2741056,30.2366492 C38.2061977,30.2010128 38.1322079,30.1828488 38.0580683,30.1828488 C37.9839521,30.1828488 37.910003,30.201006 37.8429414,30.2361711 L32.5416833,33.0227745 L33.0558198,30.0270726 L33.5547034,27.1202455 C33.580372,26.9701828 33.5302915,26.8160324 33.4220241,26.71033 L29.1324555,22.5297001 L32.1403452,22.0925145 L35.0595793,21.6682148 C35.2104264,21.6462669 35.3402619,21.5519796 35.4075481,21.4155887 L38.0580683,16.0448208 L39.4031836,18.7704375 L40.708682,21.4157783 C40.7759801,21.5521933 40.9056131,21.6463287 41.0574109,21.6681828 L46.9839648,22.5295853 L42.6954095,26.7109704 Z" id="Fill-3" stroke="#EFC918"></path>
            </g>
        </g>
    </g>
</svg>