<?xml version="1.0" encoding="UTF-8"?>
<svg width="88px" height="91px" viewBox="0 0 88 91" version="1.1" xmlns="http://www.w3.org/2000/svg" xmlns:xlink="http://www.w3.org/1999/xlink">
    <!-- Generator: Sketch 48.2 (47327) - http://www.bohemiancoding.com/sketch -->
    <title>Color</title>
    <desc>Created with Sketch.</desc>
    <defs></defs>
    <g id="Page-1" stroke="none" stroke-width="1" fill="none" fill-rule="evenodd">
        <g id="Steps---1" transform="translate(0.000000, -99.000000)">
            <g id="Color" transform="translate(0.000000, 99.000000)">
                <path d="M34.1498863,-1.0574536 C34.1559657,-1.05658769 34.1620372,-1.05570867 34.168101,-1.0548165 C34.1615537,-1.05584351 34.155246,-1.05678235 34.149169,-1.05763895 Z M34.0374481,-1.06525454 C34.035967,-1.06518911 34.0345303,-1.06511477 34.0331368,-1.06503242 C34.0370209,-1.06526194 34.0420962,-1.06575225 34.0482621,-1.06650518 Z M53.5969623,25.4061403 C53.571167,25.3762667 53.5454053,25.3453274 53.5180068,25.3117422 C53.4815503,25.266876 53.4747328,25.2584743 53.4767578,25.2606928 L52.7736481,24.457139 L53.0579753,23.4203067 C54.5350987,18.0338043 54.3312823,12.9092777 51.3236722,9.4913115 L51.2525062,9.40574837 C50.8964801,8.95262432 50.2916478,8.34666954 49.3979408,7.67870213 C47.9884558,6.62523614 46.2504585,5.73301417 44.07373,5.0829789 L41.6570204,4.25036606 C39.9195853,3.7110564 38.3451899,3.31533995 36.9412369,3.03520084 C36.4375766,2.9347025 35.7436462,2.81832134 35.3186688,2.7486758 L35.2672992,2.761671 C35.2940512,2.756039 35.1216489,2.79802962 35.0105675,2.82202757 C34.7612952,2.87588019 34.5221083,2.9130512 34.2690888,2.92800234 C34.0280752,2.94224406 33.7901423,2.93480866 33.5671774,2.89974083 C33.2481986,2.85283218 32.2906425,3.07940417 31.9166807,3.23967352 L31.7733697,3.29468327 C31.0994299,3.52410958 29.3497957,4.43266978 27.7306993,5.63959824 C25.1366963,7.57325462 23.2056485,9.95107179 22.2677213,12.8294918 C22.0981447,13.2999301 21.9373939,14.090318 21.8603593,15.3626524 C21.7365312,17.4078461 21.8970721,20.0442895 22.439722,23.3404998 L22.6435782,24.5787812 L21.6172725,25.3009963 C21.5628404,25.3393004 21.5589963,25.3428552 21.5608983,25.3402767 C21.2352303,25.7776022 21.351864,27.6048644 21.8878813,29.5933155 L21.9280105,29.7756688 C22.0885897,30.7116162 22.3939897,31.3258095 22.8029164,31.7554413 L23.2396617,32.2143002 L23.3325894,32.840928 C24.5337012,40.9402283 31.3388483,48.4418647 37.0751278,48.4418647 C43.4943989,48.4418647 50.4078148,40.8474068 51.7628371,32.8231342 L51.8645965,32.2205277 L52.2858012,31.7777228 C52.7110911,31.3306231 53.024786,30.7111606 53.1821554,29.780433 L53.2252196,29.5855012 C53.7604709,27.6314092 53.8887291,25.8899814 53.5969623,25.4061403 Z M35.4229774,2.72228843 L35.4229774,2.72230897 C35.4231365,2.72226193 35.4232956,2.72221483 35.4234549,2.72216765 L35.4229774,2.72228843 Z M35.3357315,2.7443594 C35.3368504,2.7433346 35.3433645,2.74179545 35.3546432,2.73948896 C35.3552518,2.73936451 35.3558617,2.73923898 35.3564729,2.73911236 L35.3357315,2.7443594 Z M21.2605596,12.4080682 C21.2667468,12.3921475 21.2728462,12.3767891 21.2789369,12.36184 C22.1608857,9.72824379 23.8518464,7.47780621 26.0963812,5.57542248 C27.2417707,4.60463317 28.4593805,3.78621865 29.6844249,3.10509206 C30.1112867,2.86775622 30.5084811,2.6643297 30.8773912,2.48867483 C30.91816,2.46926297 30.9572065,2.45084051 30.9951225,2.43311199 L31.0842894,2.3439451 L31.5469873,2.19627556 C32.2899648,1.9591551 32.8690754,1.81774436 33.4360301,1.81774436 L33.5631737,1.81774436 L33.6892938,1.8338448 C34.0042063,1.87404639 34.5159916,1.82563427 34.8348735,1.74316482 L35.2323796,1.64036151 L35.6382375,1.70248262 C36.3582348,1.8126863 36.9953711,1.92521839 37.8629207,2.11167222 C39.131024,2.38421307 40.489451,2.73790598 41.9858353,3.20580134 L44.4104445,4.03435645 C45.9152794,4.48510264 47.2681092,5.07580822 48.4721811,5.77455063 C49.5158707,6.38022054 50.3957818,7.03557382 51.1191747,7.69987473 C51.5310064,8.07806506 51.8289343,8.39860199 52.0190127,8.63317211 C52.0191748,8.63333415 52.0193395,8.63349881 52.0195068,8.63366614 L52.1049689,8.72463643 C55.8095307,12.9231397 55.6936776,18.8511037 53.9094236,24.4162859 L54.7636016,24.6115266 L54.8236068,26.1416589 C54.8594055,27.0545257 54.6389988,28.4305585 54.2868522,29.7772672 C54.2792104,29.8198537 54.2700321,29.8620975 54.2592975,29.9064659 C54.0850015,31.0563063 53.6530651,32.0408557 52.9020014,32.6809064 C51.6542952,40.9542064 44.2622951,49.5160301 37.0751278,49.5160301 C30.5070321,49.5160301 23.3342026,41.077589 22.2382145,32.7295157 C21.4801351,32.0785916 21.0680048,31.1148206 20.8608826,29.915692 L20.8474774,29.8380829 C20.5451743,28.6893664 20.3226499,27.3638829 20.2874012,26.4738526 L20.2128735,24.5920278 L21.5525788,24.4580572 C20.6579056,19.6033417 20.5501988,16.0830574 20.9346691,13.7044909 C21.0206236,13.1727243 21.1177684,12.7924459 21.2046033,12.5511732 L21.2446695,12.4398484 L21.2605596,12.4080682 Z" id="Fill-1" stroke="#156095" stroke-width="4"></path>
                <path d="M59.8125562,46.2033515 C58.7943262,45.7584854 57.7446109,45.3386745 56.6943409,44.949188 C56.1185955,44.7356761 55.5846296,44.5470028 55.1068544,44.3853511 C54.823991,44.2896463 54.6255875,44.2250974 54.4518484,44.1689481 C51.9500911,43.2746673 50.1154986,42.3112899 48.8482108,41.3313854 C45.0705966,47.7922345 41.1386406,50.9202519 36.9942683,50.9322752 C33.2366092,50.9431766 30.0561458,48.4681819 27.323569,44.4794374 C26.6393176,43.480635 26.0190697,42.4340284 25.463373,41.3764007 C24.0745592,42.404782 22.1380667,43.4140296 19.744246,44.4361268 C18.1484567,45.117486 16.4477134,45.7600564 14.7481448,46.3464874 C14.1540918,46.5514636 13.6020273,46.7349936 13.1055629,46.8946761 C12.8568821,46.9746617 12.6651713,47.0349307 12.5381832,47.0740972 C11.7630147,47.3742496 11.0550771,47.7209481 10.4117036,48.1044304 C9.62703819,48.5721296 8.98185714,49.0667739 8.46934901,49.5523736 C8.29879589,49.7139721 8.15901177,49.85963 8.04927665,49.9846683 C8.00691423,50.0329383 7.98225909,50.0626091 8.00261359,50.0322264 C6.34865193,52.5105105 4.99548419,56.2709198 3.96670676,60.9333368 C3.22943196,64.2746646 2.70095967,67.8713835 2.34902028,71.4705298 C2.22567575,72.731926 2.13333702,73.9025311 2.06759798,74.9513575 C2.04469196,75.3168091 2.02676292,75.6403476 2.01325327,75.9181155 C2.00744875,76.0374604 2.00339403,76.1284671 2.00087265,76.1896482 C2.03601455,77.6238231 2.28395346,78.5027357 2.60453934,78.9604378 C2.63894044,79.0095524 2.6654046,79.041922 2.6833512,79.0617184 L2.75100018,79.0919055 C5.8822026,80.4891438 9.65236694,81.6877197 13.920021,82.6951197 C18.6874236,83.8204878 23.8118619,84.6506498 28.9386791,85.2280892 C30.7347101,85.4303783 32.401751,85.5864849 33.8960885,85.7020977 C34.417462,85.742435 34.8794179,85.7748048 35.2765079,85.7999254 C35.5119535,85.8148201 35.6717008,85.8239084 35.6890995,85.8257334 C39.5960958,85.9048624 43.4458145,85.7457641 47.2742817,85.375206 C43.9243574,81.0530637 42.0403609,75.728594 42.0403609,70.1174737 C42.0403609,58.875455 49.5122928,49.308338 59.8125562,46.2033515 Z M8.00261359,50.0322264 C8.00807141,50.0240796 8.01676532,50.0116151 8.02922169,49.9940337 C8.02359629,50.0024178 8.01797443,50.0108163 8.01235611,50.0192294 Z" id="Fill-3" stroke="#156095" stroke-width="4"></path>
                <path d="M66.1879098,49.1410226 C77.3077053,49.1410226 86.3637594,58.1970766 86.3637594,69.3168722 C86.3637594,80.457299 77.3161915,89.5 66.1879098,89.5 C55.0584198,89.5 46.004782,80.4560973 46.004782,69.3168722 C46.004782,58.1982793 55.0669108,49.1410226 66.1879098,49.1410226 Z M64.2419271,77.1038804 L78.3209353,63.0248722 L76.8754042,61.5793411 L64.2484053,74.1677724 L63.1893696,73.1049723 L57.3987667,67.293732 L55.9383055,68.7531542 L64.2419271,77.1038804 Z M78.6510605,63.3549974 C78.6531542,63.3571309 78.6552723,63.3592492 78.657415,63.3613519 L78.6510605,63.3549974 Z" id="Fill-4" stroke="#EFC918" stroke-width="3"></path>
            </g>
        </g>
    </g>
</svg>