<?xml version="1.0" encoding="iso-8859-1"?>
<!-- Generator: Adobe Illustrator 17.1.0, SVG Export Plug-In . SVG Version: 6.00 Build 0)  -->
<!DOCTYPE svg PUBLIC "-//W3C//DTD SVG 1.1//EN" "http://www.w3.org/Graphics/SVG/1.1/DTD/svg11.dtd">
<svg version="1.1" id="Capa_1" xmlns="http://www.w3.org/2000/svg" xmlns:xlink="http://www.w3.org/1999/xlink" x="0px" y="0px"
	 viewBox="0 0 180.247 180.247" style="enable-background:new 0 0 180.247 180.247;" xml:space="preserve">
<path d="M172.679,166.002H7.569c-1.104,0-2-0.896-2-2V58.711H2c-1.104,0-2-0.896-2-2V34.436c0-1.104,0.896-2,2-2h16.515V21.578
	c0-4.043,3.29-7.333,7.333-7.333h8.639c4.043,0,7.333,3.29,7.333,7.333v10.858h96.608V21.578c0-4.043,3.29-7.333,7.334-7.333h8.638
	c4.044,0,7.334,3.29,7.334,7.333v10.858h16.514c1.104,0,2,0.896,2,2v22.275c0,1.104-0.896,2-2,2h-3.568v105.291
	C174.679,165.106,173.783,166.002,172.679,166.002z M9.569,162.002h161.109V58.711H9.569V162.002z M4,54.711h172.247V36.436H4
	V54.711z M142.428,32.436h15.306V21.578c0-1.838-1.496-3.333-3.334-3.333h-8.638c-1.838,0-3.334,1.495-3.334,3.333V32.436z
	 M22.515,32.436h15.305V21.578c0-1.838-1.495-3.333-3.333-3.333h-8.639c-1.838,0-3.333,1.495-3.333,3.333V32.436z M73.834,148.553
	c-0.342,0-0.687-0.087-1.001-0.269c-0.854-0.494-1.22-1.537-0.862-2.456l12.584-32.358H67.152c-0.632,0-1.227-0.298-1.604-0.805
	c-0.378-0.506-0.493-1.162-0.313-1.767l11.138-37.311c0.253-0.847,1.032-1.428,1.916-1.428h20.883c0.658,0,1.274,0.324,1.647,0.866
	c0.373,0.542,0.456,1.233,0.221,1.848L93.03,95.827h20.064c0.771,0,1.472,0.442,1.804,1.137c0.333,0.695,0.237,1.519-0.246,2.118
	l-39.26,48.727C75.001,148.294,74.422,148.553,73.834,148.553z M69.837,109.47h17.642c0.66,0,1.278,0.326,1.65,0.871
	c0.373,0.545,0.453,1.239,0.214,1.854l-8.964,23.048l28.536-35.417H90.124c-0.658,0-1.274-0.324-1.647-0.866
	c-0.373-0.542-0.456-1.233-0.221-1.848l8.011-20.953H79.78L69.837,109.47z M140.394,119.967c-1.104,0-2-0.896-2-2v-5.611h-5.61
	c-1.104,0-2-0.896-2-2s0.896-2,2-2h5.61v-5.61c0-1.104,0.896-2,2-2s2,0.896,2,2v5.61h5.611c1.104,0,2,0.896,2,2s-0.896,2-2,2h-5.611
	v5.611C142.394,119.072,141.498,119.967,140.394,119.967z M47.465,112.356H32.243c-1.104,0-2-0.896-2-2s0.896-2,2-2h15.222
	c1.104,0,2,0.896,2,2S48.569,112.356,47.465,112.356z"/>
<g>
</g>
<g>
</g>
<g>
</g>
<g>
</g>
<g>
</g>
<g>
</g>
<g>
</g>
<g>
</g>
<g>
</g>
<g>
</g>
<g>
</g>
<g>
</g>
<g>
</g>
<g>
</g>
<g>
</g>
</svg>
