<?xml version="1.0" encoding="iso-8859-1"?>
<!-- Generator: Adobe Illustrator 19.0.0, SVG Export Plug-In . SVG Version: 6.00 Build 0)  -->
<svg version="1.1" id="Layer_1" xmlns="http://www.w3.org/2000/svg" xmlns:xlink="http://www.w3.org/1999/xlink" x="0px" y="0px"
	 viewBox="0 0 511.999 511.999" style="enable-background:new 0 0 511.999 511.999;" xml:space="preserve">
<g>
	<g>
		<path d="M446.688,453.788c-2.745-16.699-11.707-33.347-25.236-46.876c-5.182-5.181-10.854-9.725-16.858-13.507
			c-3.267-2.059-7.425-2.057-10.689,0.001c-6.01,3.788-11.68,8.331-16.854,13.506c-13.53,13.529-22.491,30.177-25.236,46.876
			c-2.945,17.922,1.493,33.849,12.494,44.848c5.348,5.349,11.893,9.16,19.449,11.329c4.702,1.35,9.726,2.034,14.942,2.034
			c0.219,0,0.44-0.001,0.659-0.003c4.877-0.052,9.91-0.697,14.957-1.917c0.137-0.033,0.274-0.069,0.409-0.108
			c7.568-2.169,14.12-5.983,19.471-11.335C445.198,487.635,449.634,471.708,446.688,453.788z M420.019,484.458
			c-2.873,2.873-6.445,4.952-10.621,6.18c-3.507,0.832-6.956,1.271-10.258,1.307c-3.515,0.039-6.82-0.383-9.849-1.253
			c-4.252-1.22-7.888-3.319-10.805-6.235c-6.31-6.307-8.755-16.045-6.887-27.417c2.07-12.595,9.04-25.361,19.628-35.949
			c2.541-2.541,5.225-4.886,8.023-7.013c2.795,2.124,5.479,4.469,8.022,7.013C427.902,441.719,433.738,470.738,420.019,484.458z"/>
	</g>
</g>
<g>
	<g>
		<path d="M443.353,296.227v-26.712c0-57.586-46.854-104.436-104.446-104.436h-65.075v-49.597c0-6.153-4.987-11.14-11.14-11.14
			h-29.451V79.187c13.321-3.83,23.834-14.341,27.665-27.662h18.048c4.392,10.63,14.867,18.13,27.065,18.13
			c16.142,0,29.274-13.133,29.274-29.274c0-16.142-13.133-29.274-29.274-29.274c-12.2,0-22.677,7.505-27.069,18.139h-18.042
			C256.061,12.38,240.504,0,222.101,0s-33.96,12.38-38.807,29.245h-18.042c-4.391-10.634-14.867-18.139-27.068-18.139
			c-16.142,0-29.274,13.133-29.274,29.274s13.133,29.274,29.274,29.274c12.198,0,22.672-7.5,27.065-18.13h18.048
			c3.831,13.321,14.344,23.831,27.665,27.662v25.156H181.51c-6.153,0-11.14,4.987-11.14,11.14v49.593H72.193v-7.572
			c0-6.153-4.987-11.14-11.14-11.14c-6.152,0-11.14,4.987-11.14,11.14v18.711v92.802c0,6.153,4.987,11.14,11.14,11.14
			c6.153,0,11.14-4.987,11.14-11.14v-7.614l66.028,0.04c23.603,21.874,53.738,32.821,83.88,32.821
			c30.199,0,60.393-10.988,84.016-32.947h24.743c8.963,0,16.255,7.286,16.255,16.244v18.664
			c-10.606,1.703-18.743,10.892-18.743,21.971v23.658c0,12.285,9.995,22.28,22.28,22.28h89.154c12.285,0,22.28-9.995,22.28-22.28
			v-23.658C462.086,307.122,453.955,297.935,443.353,296.227z M299.025,40.356c0.013-3.845,3.145-6.97,6.994-6.97
			c3.857,0,6.995,3.138,6.995,6.995c0,3.857-3.138,6.995-6.995,6.995c-3.848,0-6.978-3.122-6.994-6.966
			c0-0.009,0.001-0.017,0.001-0.025C299.026,40.375,299.025,40.366,299.025,40.356z M138.185,47.375
			c-3.857,0-6.995-3.138-6.995-6.995c0-3.857,3.138-6.995,6.995-6.995c3.857,0,6.995,3.138,6.995,6.995
			C145.178,44.237,142.041,47.375,138.185,47.375z M204.002,40.415c0-0.01,0.001-0.02,0.001-0.03c0-0.011-0.001-0.022-0.002-0.035
			c0.018-9.967,8.129-18.071,18.1-18.071c9.978,0,18.096,8.115,18.101,18.093c0,0.004-0.001,0.009-0.001,0.012s0,0.006,0,0.009
			c-0.007,9.976-8.123,18.089-18.1,18.089C212.132,58.483,204.021,50.381,204.002,40.415z M192.648,126.623h58.904v38.453h-58.904
			V126.623z M330.861,239.039h-29.333c-3.457,0-6.546,1.575-8.589,4.046c-39.508,38.756-103.169,38.542-142.389-0.678
			c-2.302-2.302-5.358-3.372-8.372-3.238l-69.985-0.042v-51.769H181.51h81.103c0.029,0,0.057,0.004,0.086,0.004h76.21
			c45.307,0,82.166,36.855,82.166,82.156v26.402h-51.679v-18.356C369.395,256.32,352.109,239.039,330.861,239.039z M439.806,341.855
			h-89.154v-23.658h7.496c0.037,0,0.071,0.006,0.108,0.006s0.071-0.006,0.108-0.006h73.743c0.037,0,0.071,0.006,0.108,0.006
			s0.071-0.006,0.108-0.006h7.485l0.014,23.658C439.821,341.854,439.816,341.855,439.806,341.855z"/>
	</g>
</g>
<g>
</g>
<g>
</g>
<g>
</g>
<g>
</g>
<g>
</g>
<g>
</g>
<g>
</g>
<g>
</g>
<g>
</g>
<g>
</g>
<g>
</g>
<g>
</g>
<g>
</g>
<g>
</g>
<g>
</g>
</svg>
