<?xml version="1.0" encoding="iso-8859-1"?>
<!-- Generator: Adobe Illustrator 19.0.0, SVG Export Plug-In . SVG Version: 6.00 Build 0)  -->
<svg version="1.1" id="Capa_1" xmlns="http://www.w3.org/2000/svg" xmlns:xlink="http://www.w3.org/1999/xlink" x="0px" y="0px"
	 viewBox="0 0 512.001 512.001" style="enable-background:new 0 0 512.001 512.001;" xml:space="preserve">
<g>
	<g>
		<path d="M503.468,204.801h-85.333v17.067h76.8v273.067H17.068V221.867h76.8v-17.067H8.535c-4.71,0-8.533,3.814-8.533,8.533
			v290.133c0,4.719,3.823,8.533,8.533,8.533h494.933c4.71,0,8.533-3.814,8.533-8.533V213.334
			C512.001,208.615,508.179,204.801,503.468,204.801z"/>
	</g>
</g>
<g>
	<g>
		<path d="M507.086,205.603c-2.995-1.408-6.537-0.947-9.079,1.169L303.088,369.213c-2.074,1.732-3.209,4.352-3.055,7.049
			c0.154,2.697,1.579,5.163,3.84,6.647L498.792,510.61c1.417,0.922,3.046,1.391,4.676,1.391c1.391,0,2.79-0.341,4.053-1.024
			c2.765-1.493,4.48-4.378,4.48-7.509V213.334C512.001,210.023,510.09,207.011,507.086,205.603z M494.935,487.672L322.869,374.938
			l172.066-143.386V487.672z"/>
	</g>
</g>
<g>
	<g>
		<path d="M208.915,369.212L13.996,206.78c-2.543-2.116-6.084-2.577-9.079-1.169c-3.004,1.399-4.915,4.412-4.915,7.723v290.133
			c0,3.132,1.724,6.016,4.48,7.509c1.263,0.683,2.662,1.024,4.053,1.024c1.63,0,3.26-0.469,4.676-1.391l194.918-127.701
			c2.261-1.485,3.686-3.951,3.84-6.647C212.123,373.564,210.988,370.945,208.915,369.212z M17.068,487.681V231.553l172.066,143.394
			L17.068,487.681z"/>
	</g>
</g>
<g>
	<g>
		<path d="M508.904,206.755l-85.333-70.613l-10.88,13.15l67.081,55.509h-61.636v17.067h85.333c3.601,0,6.801-2.27,8.021-5.649
			C512.71,212.839,511.677,209.05,508.904,206.755z"/>
	</g>
</g>
<g>
	<g>
		<path d="M99.304,149.3l-10.88-13.15L3.091,206.763c-2.765,2.287-3.806,6.084-2.586,9.463s4.429,5.641,8.03,5.641h85.333v-17.067
			H32.232L99.304,149.3z"/>
	</g>
</g>
<g>
	<g>
		<path d="M424.168,70.768L355.901,2.501c-1.596-1.604-3.772-2.5-6.033-2.5h-256c-4.71,0-8.533,3.814-8.533,8.533v275.908
			c0,2.534,1.126,4.932,3.072,6.562l109.585,91.324c2.876,2.398,6.997,2.637,10.138,0.58l28.348-18.586
			c11.861-7.765,27.187-7.774,39.049,0.009l28.348,18.577c1.425,0.93,3.055,1.391,4.676,1.391c1.954,0,3.891-0.666,5.461-1.971
			l109.585-91.324c1.946-1.63,3.072-4.028,3.072-6.562V76.801C426.668,74.531,425.772,72.363,424.168,70.768z M409.602,280.44
			l-101.649,84.736l-23.066-15.113c-17.545-11.503-40.218-11.494-57.762-0.009l-23.066,15.113L102.402,280.44V17.067h243.934
			l63.266,63.266V280.44z"/>
	</g>
</g>
<g>
	<g>
		<path d="M503.468,204.801h-85.333c-4.71,0-8.533,3.814-8.533,8.533c0,4.719,3.823,8.533,8.533,8.533h85.333
			c4.71,0,8.533-3.814,8.533-8.533C512.001,208.615,508.179,204.801,503.468,204.801z"/>
	</g>
</g>
<g>
	<g>
		<path d="M93.868,204.801H8.535c-4.71,0-8.533,3.814-8.533,8.533c0,4.719,3.823,8.533,8.533,8.533h85.333
			c4.71,0,8.533-3.814,8.533-8.533C102.402,208.615,98.579,204.801,93.868,204.801z"/>
	</g>
</g>
<g>
	<g>
		<path d="M418.135,68.267h-59.733V8.534c0-4.719-3.823-8.533-8.533-8.533s-8.533,3.814-8.533,8.533v68.267
			c0,4.719,3.823,8.533,8.533,8.533h68.267c4.71,0,8.533-3.814,8.533-8.533S422.845,68.267,418.135,68.267z"/>
	</g>
</g>
<g>
	<g>
		<path d="M256.001,85.334c-61.167,0-110.933,49.766-110.933,110.933s49.766,110.933,110.933,110.933
			s110.933-49.766,110.933-110.933S317.168,85.334,256.001,85.334z M256.001,290.134c-51.755,0-93.867-42.112-93.867-93.867
			c0-51.755,42.112-93.867,93.867-93.867c51.763,0,93.867,42.112,93.867,93.867C349.868,248.022,307.756,290.134,256.001,290.134z"
			/>
	</g>
</g>
<g>
	<g>
		<path d="M273.068,187.734h-34.133c-9.412,0-17.067-7.654-17.067-17.067c0-9.412,7.654-17.067,17.067-17.067h51.2
			c4.71,0,8.533-3.814,8.533-8.533s-3.823-8.533-8.533-8.533h-51.2c-18.825,0-34.133,15.309-34.133,34.133
			s15.309,34.133,34.133,34.133h34.133c9.412,0,17.067,7.654,17.067,17.067c0,9.412-7.654,17.067-17.067,17.067h-51.2
			c-4.71,0-8.533,3.814-8.533,8.533s3.823,8.533,8.533,8.533h51.2c18.825,0,34.133-15.309,34.133-34.133
			S291.893,187.734,273.068,187.734z"/>
	</g>
</g>
<g>
	<g>
		<path d="M256.001,119.467c-4.71,0-8.533,3.814-8.533,8.533v136.533c0,4.719,3.823,8.533,8.533,8.533s8.533-3.814,8.533-8.533
			V128.001C264.535,123.282,260.712,119.467,256.001,119.467z"/>
	</g>
</g>
<g>
</g>
<g>
</g>
<g>
</g>
<g>
</g>
<g>
</g>
<g>
</g>
<g>
</g>
<g>
</g>
<g>
</g>
<g>
</g>
<g>
</g>
<g>
</g>
<g>
</g>
<g>
</g>
<g>
</g>
</svg>
